<?xml version="1.0" encoding="UTF-8"?>
<svg width="24px" height="24px" viewBox="0 0 24 24" version="1.1" xmlns="http://www.w3.org/2000/svg">
    <path d="M19.5,3h-15C3.7,3,3,3.7,3,4.5v15C3,20.3,3.7,21,4.5,21h15c0.8,0,1.5-0.7,1.5-1.5v-15C21,3.7,20.3,3,19.5,3z M12.7,16.5 c-0.4,0.7-0.8,1.2-1.3,1.5c-0.5,0.3-1.1,0.5-1.7,0.5c-0.7,0-1.2-0.2-1.6-0.6c-0.4-0.4-0.6-0.9-0.6-1.5c0-0.7,0.2-1.3,0.7-1.8 c0.5-0.5,1.1-0.7,1.9-0.7c0.3,0,0.7,0,1.1,0.1v-0.4c0-0.5-0.1-0.9-0.4-1.2c-0.3-0.3-0.6-0.4-1.1-0.4c-0.3,0-0.6,0.1-0.9,0.2 c-0.3,0.1-0.5,0.3-0.7,0.6L7.5,12c0.3-0.4,0.6-0.7,1.1-0.9c0.4-0.2,0.9-0.3,1.4-0.3c0.8,0,1.5,0.2,1.9,0.7c0.5,0.5,0.7,1.1,0.7,2 v3.8h-1.2L12.7,16.5z M16.5,17.2c-0.3,0.4-0.7,0.7-1.2,0.9c-0.5,0.2-1,0.3-1.6,0.3c-0.8,0-1.4-0.2-1.9-0.7c-0.5-0.5-0.7-1.1-0.7-1.9 c0-0.8,0.3-1.5,0.8-2c0.5-0.5,1.2-0.7,2.1-0.7c0.6,0,1.1,0.1,1.5,0.3v-0.4c0-0.4-0.1-0.7-0.4-0.9c-0.2-0.2-0.6-0.3-1-0.3 c-0.6,0-1.2,0.2-1.8,0.7l-0.7-0.9c0.7-0.6,1.6-0.9,2.7-0.9c0.9,0,1.6,0.2,2.1,0.7c0.5,0.5,0.8,1.1,0.8,2v3.8h-1.2L16.5,17.2z" fill="currentColor"/>
</svg>
