<?xml version="1.0" encoding="UTF-8"?>
<svg width="24px" height="24px" viewBox="0 0 24 24" version="1.1" xmlns="http://www.w3.org/2000/svg">
    <path d="M20.5,3h-17C2.7,3,2,3.7,2,4.5v15C2,20.3,2.7,21,3.5,21h17c0.8,0,1.5-0.7,1.5-1.5v-15C22,3.7,21.3,3,20.5,3z M12,15.5 c-1.9,0-3.5-1.6-3.5-3.5s1.6-3.5,3.5-3.5c0.8,0,1.6,0.3,2.2,0.8l0.9-0.9C14.3,7.6,13.2,7.2,12,7.2c-2.6,0-4.8,2.1-4.8,4.8 s2.1,4.8,4.8,4.8c2.1,0,3.9-1.3,4.5-3.2h-4.5v-1.3h6c0.1,0.4,0.1,0.8,0.1,1.2C18.1,13.4,16.1,15.5,12,15.5z" fill="currentColor"/>
</svg>
