<?xml version="1.0" encoding="UTF-8"?>
<svg width="24px" height="24px" viewBox="0 0 24 24" version="1.1" xmlns="http://www.w3.org/2000/svg">
    <path d="M20.7,5.3c-0.4-0.4-1-0.7-1.7-0.7h-7.5c-0.3,0-0.5,0.2-0.6,0.4l-2.2,9.8c0,0.1,0,0.2,0,0.3c0,0.4,0.3,0.7,0.7,0.7h2.3 l0.6-2.5c0.1-0.5,0.5-0.8,1-0.8h1.5c4.1,0,6.5-2,7.1-5.8C22,6,21.5,5.7,20.7,5.3z M19.5,9.9c-0.4,2.7-2.2,4.1-5.1,4.1h-1 c-0.5,0-0.9,0.3-1,0.8l-0.7,3c0,0.2-0.2,0.3-0.4,0.3H8.7c-0.2,0-0.3-0.2-0.3-0.4l1.9-8.5c0.1-0.2,0.3-0.4,0.5-0.4h6.2 c0.5,0,0.9,0.1,1.2,0.3C19,9.3,19.3,9.6,19.5,9.9z" fill="currentColor"/>
    <path d="M7.2,5.3c-0.4-0.4-1-0.7-1.7-0.7H3c-0.3,0-0.5,0.2-0.6,0.4l-2.2,9.8c0,0.1,0,0.2,0,0.3c0,0.4,0.3,0.7,0.7,0.7h2.3l0.6-2.5 c0.1-0.5,0.5-0.8,1-0.8h1.5c4.1,0,6.5-2,7.1-5.8C13.5,6,13,5.7,7.2,5.3z M11,9.9c-0.4,2.7-2.2,4.1-5.1,4.1h-1c-0.5,0-0.9,0.3-1,0.8 l-0.7,3c0,0.2-0.2,0.3-0.4,0.3H0.2c-0.2,0-0.3-0.2-0.3-0.4l1.9-8.5c0.1-0.2,0.3-0.4,0.5-0.4h6.2c0.5,0,0.9,0.1,1.2,0.3 C10.5,9.3,10.8,9.6,11,9.9z" fill="currentColor"/>
</svg>
